<svg xmlns="http://www.w3.org/2000/svg" xmlns:xlink="http://www.w3.org/1999/xlink" version="1.1" x="0px" y="0px" viewBox="0 0 100 125" enable-background="new 0 0 100 100" xml:space="preserve"><g><g><path d="M66.748,35.5H33.252c-2.391,0-4.336,1.945-4.336,4.335v20.33c0,2.39,1.945,4.335,4.336,4.335h33.496    c2.391,0,4.336-1.945,4.336-4.335v-20.33C71.084,37.445,69.139,35.5,66.748,35.5z M68.084,60.165c0,0.736-0.6,1.335-1.336,1.335    H33.252c-0.736,0-1.336-0.599-1.336-1.335v-20.33c0-0.736,0.6-1.335,1.336-1.335h33.496c0.736,0,1.336,0.599,1.336,1.335V60.165z"/><polygon points="50,51.001 35.195,40.606 33.471,43.062 50,54.667 66.529,43.062 64.805,40.606   "/></g></g></svg>