<svg xmlns="http://www.w3.org/2000/svg" data-name="Layer 1" viewBox="0 0 100 125" x="0px" y="0px"><title>144all</title><path d="M6.8,40l8.4,6.57a30.46,30.46,0,0,0,0,6.85L6.79,60a4.22,4.22,0,0,0-1,5.39l8.78,15.18a4.23,4.23,0,0,0,5.18,1.87l9.92-4a34.3,34.3,0,0,0,5.91,3.43L37.07,92.4A4.15,4.15,0,0,0,41.21,96h17.6a4.14,4.14,0,0,0,4.14-3.56l1.51-10.55a35.45,35.45,0,0,0,5.9-3.43l9.94,4a4.15,4.15,0,0,0,5.15-1.83l8.82-15.27A4.21,4.21,0,0,0,93.22,60l-8.4-6.57a30.63,30.63,0,0,0,0-6.86L93.22,40a4.22,4.22,0,0,0,1-5.39L85.47,19.43a4.24,4.24,0,0,0-5.19-1.87l-9.92,4a34.35,34.35,0,0,0-5.91-3.43L63,7.6A4.15,4.15,0,0,0,58.81,4H41.21a4.14,4.14,0,0,0-4.14,3.56L35.56,18.12a35.45,35.45,0,0,0-5.9,3.43l-9.94-4a4.15,4.15,0,0,0-5.14,1.83L5.78,34.59A4.2,4.2,0,0,0,6.8,40Zm2.44-3.39,8.82-15.27a.15.15,0,0,1,.18-.07l11,4.4a2,2,0,0,0,1.95-.26,31.53,31.53,0,0,1,7-4.06,2,2,0,0,0,1.22-1.57L41,8.1s.07-.1.17-.1h17.6a.16.16,0,0,1,.18.13l1.67,11.66a2,2,0,0,0,1.22,1.57,30.35,30.35,0,0,1,7,4,2,2,0,0,0,2,.27L81.71,21.3a.23.23,0,0,1,.27.09l8.78,15.18a.24.24,0,0,1,0,.28l-9.28,7.26a2,2,0,0,0-.75,1.82A32.67,32.67,0,0,1,81,50a32.68,32.68,0,0,1-.29,4.06,2,2,0,0,0,.75,1.82l9.28,7.25a.22.22,0,0,1,0,.25L82,78.65a.14.14,0,0,1-.18.07l-11-4.4a2,2,0,0,0-1.95.26,31.59,31.59,0,0,1-7,4.06,2,2,0,0,0-1.22,1.57L59,91.9a.17.17,0,0,1-.17.1H41.21a.16.16,0,0,1-.18-.13L39.36,80.21a2,2,0,0,0-1.22-1.57,30.34,30.34,0,0,1-7-4,2,2,0,0,0-2-.27L18.3,78.7a.23.23,0,0,1-.27-.09L9.26,63.43a.24.24,0,0,1,0-.28l9.28-7.26a2,2,0,0,0,.75-1.82A32.66,32.66,0,0,1,19,50a32.67,32.67,0,0,1,.29-4.06,2,2,0,0,0-.75-1.82L9.27,36.86A.18.18,0,0,1,9.24,36.61Z"/><path d="M50,75A25,25,0,1,0,25,50,25,25,0,0,0,50,75Zm0-46a21,21,0,0,1,7,40.74V58.44a14.33,14.33,0,0,0,7.28-12.56,14.6,14.6,0,0,0-9.52-13.6,2,2,0,0,0-2.7,1.88v9.59H48L47.89,34a2,2,0,0,0-2.63-1.87,14.47,14.47,0,0,0-2.31,26.18V69.74A21,21,0,0,1,50,29Z"/></svg>